<?xml version="1.0" standalone="no"?><!DOCTYPE svg PUBLIC "-//W3C//DTD SVG 1.1//EN" "http://www.w3.org/Graphics/SVG/1.1/DTD/svg11.dtd"><svg t="1719134629211" class="icon" viewBox="0 0 1024 1024" version="1.1" xmlns="http://www.w3.org/2000/svg" p-id="2519" xmlns:xlink="http://www.w3.org/1999/xlink" width="200" height="200"><path d="M0 921.6V102.4C0 46.933333 46.933333 0 102.4 0h819.2C977.066667 0 1024 46.933333 1024 102.4v819.2c0 55.466667-46.933333 102.4-102.4 102.4H102.4C46.933333 1024 0 977.066667 0 921.6z m947.2 0V102.4c0-12.8-12.8-25.6-25.6-25.6H102.4c-12.8 0-25.6 12.8-25.6 25.6v819.2c0 12.8 12.8 25.6 25.6 25.6h819.2c12.8 0 25.6-12.8 25.6-25.6z" fill="#411c03" p-id="2520"></path><path d="M477.866667 209.066667h68.266666v110.933333h230.4v315.733333h-68.266666v-34.133333h-162.133334v217.6h-68.266666v-217.6H315.733333v34.133333H247.466667V320h230.4V209.066667z m-162.133334 324.266666h162.133334V384H315.733333v149.333333z m230.4 0h162.133334V384h-162.133334v149.333333z" fill="#411c03" p-id="2521"></path></svg>