<?xml version="1.0" standalone="no"?><!DOCTYPE svg PUBLIC "-//W3C//DTD SVG 1.1//EN" "http://www.w3.org/Graphics/SVG/1.1/DTD/svg11.dtd"><svg t="1719134673939" class="icon" viewBox="0 0 1024 1024" version="1.1" xmlns="http://www.w3.org/2000/svg" p-id="2753" xmlns:xlink="http://www.w3.org/1999/xlink" width="200" height="200"><path d="M827.733333 729.6h-81.066666v-157.866667c0-34.133333 0-55.466667-4.266667-64-4.266667-8.533333-8.533333-17.066667-17.066667-21.333333-8.533333-4.266667-17.066667-8.533333-29.866666-8.533333-12.8 0-25.6 4.266667-38.4 12.8-12.8 8.533333-21.333333 17.066667-21.333334 29.866666-4.266667 12.8-4.266667 38.4-4.266666 72.533334v140.8h-81.066667V413.866667h76.8v46.933333c25.6-34.133333 59.733333-51.2 102.4-51.2 17.066667 0 34.133333 4.266667 51.2 8.533333 17.066667 8.533333 25.6 17.066667 34.133333 25.6 8.533333 8.533333 12.8 21.333333 17.066667 34.133334 4.266667 12.8 4.266667 29.866667 4.266667 55.466666l-8.533334 196.266667z m-652.8 0V294.4h320v72.533333H264.533333v93.866667h217.6v72.533333H264.533333v119.466667h243.2V725.333333l-332.8 4.266667z" fill="#411c03" p-id="2754"></path><path d="M0 921.6V102.4C0 46.933333 46.933333 0 102.4 0h819.2C977.066667 0 1024 46.933333 1024 102.4v819.2c0 55.466667-46.933333 102.4-102.4 102.4H102.4C46.933333 1024 0 977.066667 0 921.6z m947.2 0V102.4c0-12.8-12.8-25.6-25.6-25.6H102.4c-12.8 0-25.6 12.8-25.6 25.6v819.2c0 12.8 12.8 25.6 25.6 25.6h819.2c12.8 0 25.6-12.8 25.6-25.6z" fill="#411c03" p-id="2755"></path></svg>