<?xml version="1.0" standalone="no"?><!DOCTYPE svg PUBLIC "-//W3C//DTD SVG 1.1//EN" "http://www.w3.org/Graphics/SVG/1.1/DTD/svg11.dtd"><svg t="1720070165264" class="icon" viewBox="0 0 1024 1024" version="1.1" xmlns="http://www.w3.org/2000/svg" p-id="4468" xmlns:xlink="http://www.w3.org/1999/xlink" width="200" height="200"><path d="M613.888 198.144l0.512-2.048-26.112-7.68c-15.36-4.608-31.744-7.68-48.128-9.216h-2.56c-9.728-1.024-17.408-1.536-25.088-1.536h-1.024c-7.68 0-15.36 0.512-25.088 1.536h-2.56c-16.384 1.536-32.256 4.608-48.128 9.216l-25.088 7.168 0.512 2.048C366.592 216.064 327.68 245.76 299.008 284.16c-35.328 47.104-54.272 102.912-54.272 161.792 0 39.936 6.656 76.288 18.944 108.544 17.408 43.52 43.008 72.704 65.536 96.768l4.608 4.608c8.704 8.704 15.872 16.384 20.992 23.04 6.656 8.192 8.192 13.312 8.704 15.872 4.608 25.088 5.12 57.344 5.12 60.928v2.048c0 38.912 31.744 70.656 70.656 70.656h145.92c38.912 0 70.656-31.744 70.656-70.656v-2.048c0-0.512 0-34.304 5.12-60.928 0.512-2.56 2.048-5.632 4.096-9.216 4.608-7.68 14.336-17.92 25.088-29.184l0.512-0.512c17.92-18.944 39.936-41.984 57.856-75.264 20.992-38.4 31.232-83.968 31.232-134.656 0-58.88-18.944-114.688-54.272-161.792-29.184-37.888-67.584-67.584-111.616-86.016z m-192.512 486.4c-2.048-9.728-5.632-19.456-11.776-29.696-8.704-13.312-18.944-24.064-29.696-35.84l-3.072-3.072c-15.36-16.384-34.816-36.352-49.152-63.488-16.384-30.72-24.064-65.024-24.064-106.496 0-46.08 14.848-89.6 41.984-125.952 26.624-35.328 65.024-61.952 107.008-74.24l5.12-1.536c11.264-3.072 22.016-5.12 32.256-6.144h2.048c7.168-0.512 13.312-1.024 18.432-1.024H513.536c5.12 0 10.752 0.512 17.408 1.024l3.072 0.512c10.24 1.024 20.992 3.072 31.744 6.144l5.632 1.536c41.984 12.8 80.384 38.912 107.008 74.24 27.648 36.352 41.984 79.872 41.984 125.952 0 32.256-4.608 59.904-14.336 85.504l-0.512 1.536c-13.312 33.792-33.792 56.832-53.76 77.824l-5.632 5.632c-8.192 8.704-16.384 16.896-23.552 26.112-7.168 9.216-16.896 23.04-20.48 41.472-3.584 20.48-5.632 45.056-6.144 71.68v2.048c0 6.656-5.12 11.776-11.776 11.776 0 0-152.064-1.024-154.112-3.584-2.048-2.048-3.584-5.12-3.584-8.192v-2.048c1.024-26.624-1.024-51.2-5.12-71.68zM584.192 851.456H439.808c-16.384 0-29.696 13.312-29.696 30.208 0 16.384 13.312 29.696 29.696 29.696h144.896c16.384 0 29.696-13.312 29.696-29.696 0-16.896-13.312-30.208-30.208-30.208zM584.192 919.552H439.808c-16.384 0-29.696 13.312-29.696 29.696 0 16.384 13.312 30.208 29.696 30.208h144.896c16.384 0 29.696-13.312 29.696-30.208 0-15.872-13.312-29.696-30.208-29.696zM576.512 991.744v-2.56H447.488v5.12c0 16.896 25.088 29.696 47.104 29.696h35.328c22.016 0 47.104-12.8 47.104-29.696v-1.536c-0.512-0.512-0.512-1.024-0.512-1.024zM512 130.56c16.896 0 30.208-13.312 30.208-30.208V30.208c0-16.896-13.312-30.208-30.208-30.208s-30.208 13.312-30.208 30.208v70.144c0 16.384 13.312 30.208 30.208 30.208zM889.344 192c0-8.192-3.072-15.872-8.704-21.504s-13.312-8.704-21.504-8.704-15.872 3.072-21.504 8.704L788.48 220.16c-5.632 5.632-8.704 13.312-8.704 21.504s3.072 15.872 8.704 21.504 13.312 8.704 21.504 8.704 15.872-3.072 21.504-8.704l49.664-49.664c5.12-5.632 8.192-13.312 8.192-21.504zM235.52 220.16l-49.664-49.664c-5.632-5.632-13.312-8.704-21.504-8.704s-15.872 3.072-21.504 8.704-8.704 13.312-8.704 21.504 3.072 15.872 8.704 21.504l49.664 49.664c5.632 5.632 13.312 8.704 21.504 8.704s15.872-3.072 21.504-8.704 8.704-13.312 8.704-21.504-3.072-15.872-8.704-21.504zM948.736 451.584h-70.144c-16.896 0-30.208 13.312-30.208 30.208 0 16.896 13.312 30.208 30.208 30.208h70.144c16.896 0 30.208-13.312 30.208-30.208 0-16.384-13.312-30.208-30.208-30.208zM144.896 451.584H75.264c-16.896 0-30.208 13.312-30.208 30.208 0 16.896 13.312 30.208 30.208 30.208h70.144c16.896 0 30.208-13.312 30.208-30.208-0.512-16.384-13.824-30.208-30.72-30.208z" fill="#fff" p-id="4469"></path></svg>