<?xml version="1.0" standalone="no"?><!DOCTYPE svg PUBLIC "-//W3C//DTD SVG 1.1//EN" "http://www.w3.org/Graphics/SVG/1.1/DTD/svg11.dtd"><svg t="1712653700137" class="icon" viewBox="0 0 1024 1024" version="1.1" xmlns="http://www.w3.org/2000/svg" p-id="5215" xmlns:xlink="http://www.w3.org/1999/xlink" width="200" height="200"><path d="M896 896h-298.666667v-85.333333h298.666667V213.333333h-298.666667V128h298.666667a85.333333 85.333333 0 0 1 85.333333 85.333333v597.333334a85.333333 85.333333 0 0 1-85.333333 85.333333z m-426.666667 0h85.333334v85.333333h-85.333334v-85.333333z m0-170.666667h85.333334v85.333334h-85.333334v-85.333334z m0-170.666666h85.333334v85.333333h-85.333334v-85.333333z m0-170.666667h85.333334v85.333333h-85.333334V384z m0-170.666667h85.333334v85.333334h-85.333334V213.333333z m0-170.666666h85.333334v85.333333h-85.333334V42.666667zM42.666667 810.666667V213.333333a85.333333 85.333333 0 0 1 85.333333-85.333333h298.666667v85.333333H128v597.333334h298.666667v85.333333H128a85.333333 85.333333 0 0 1-85.333333-85.333333z m298.666666-85.333334H170.666667l234.666666-384 21.333334 34.901334V725.333333H341.333333z m341.333334-362.666666a64 64 0 1 1 64 64A64 64 0 0 1 682.666667 362.666667zM597.333333 725.333333v-256l256 256h-256z" fill="#d81e06" p-id="5216"></path></svg>