<svg width="540" height="540" viewBox="0 0 540 540" fill="none" xmlns="http://www.w3.org/2000/svg">
<rect x="11" y="13" width="516" height="518" fill="#F4F1F0"/>
<rect x="6.5" y="6.5" width="527" height="527" stroke="#3C3519" stroke-width="13"/>
<path d="M180.85 196.85L115.014 131.014M115.014 131.014L180.85 65.1777M115.014 131.014L49.1777 196.85M115.014 131.014L49.1777 65.1777" stroke="#3C3519" stroke-width="3.50911"/>
<path d="M180.833 189.515C184.875 189.515 188.152 192.791 188.152 196.833C188.152 200.875 184.875 204.152 180.833 204.152C176.791 204.152 173.515 200.875 173.515 196.833C173.515 192.791 176.791 189.515 180.833 189.515Z" fill="#3C3519" stroke="#3C3519" stroke-width="11.697"/>
<circle cx="49.1672" cy="65.1672" r="7.31868" fill="#3C3519" stroke="#3C3519" stroke-width="11.697"/>
<circle cx="49.1672" cy="196.833" r="7.31868" fill="#3C3519" stroke="#3C3519" stroke-width="11.697"/>
<circle cx="180.833" cy="65.1672" r="7.31868" fill="#3C3519" stroke="#3C3519" stroke-width="11.697"/>
<circle cx="114.999" cy="130.999" r="7.31868" fill="#3C3519" stroke="#3C3519" stroke-width="11.697"/>
<path d="M415.901 349.626V354.777H443.106V349.626H415.901ZM403.355 341.57H456.445V362.833H403.355V341.57ZM410.883 387.793V413.281H448.125V387.793H410.883ZM398.733 379.208H460.935V421.865H398.733V379.208ZM424.617 398.358V402.716H434.126V398.358H424.617ZM416.165 391.755H443.106V409.319H416.165V391.755ZM392.658 366.794H467.67V375.379H392.658V366.794ZM422.768 357.55H436.107V370.624H422.768V357.55ZM373.509 324.402H487.083V443.92H471.764V337.476H388.168V443.92H373.509V324.402ZM382.885 426.355H479.424V439.297H382.885V426.355Z" fill="#3C3519"/>
<path d="M400.318 115.214V119.044H461.595V115.214H400.318ZM400.318 124.855V128.684H461.595V124.855H400.318ZM400.318 105.573V109.271H461.595V105.573H400.318ZM385.262 98.4418H477.443V135.948H385.262V98.4418ZM370.339 140.042H490.121V150.871H370.339V140.042ZM422.504 173.454H437.692V197.754H422.504V173.454ZM383.149 170.681C390.281 170.593 398.513 170.549 407.845 170.549C417.178 170.461 427.126 170.372 437.692 170.284C448.257 170.108 458.778 169.932 469.255 169.756L468.594 179.265C458.558 179.529 448.477 179.837 438.352 180.189C428.227 180.453 418.542 180.673 409.298 180.85C400.141 181.026 391.909 181.202 384.602 181.378L383.149 170.681ZM402.298 181.642L414.448 185.472C412.335 187.233 409.826 188.905 406.921 190.49C404.015 192.163 400.978 193.66 397.808 194.98C394.727 196.301 391.689 197.49 388.696 198.546C387.551 197.401 385.923 195.993 383.81 194.32C381.785 192.647 380.024 191.371 378.527 190.49C383.017 189.434 387.419 188.157 391.733 186.66C396.135 185.164 399.657 183.491 402.298 181.642ZM454.199 142.815C457.017 145.544 460.583 148.142 464.897 150.607C469.211 153.072 473.921 155.317 479.027 157.342C484.134 159.279 489.196 160.82 494.215 161.964C492.806 163.197 491.221 164.87 489.46 166.983C487.788 169.008 486.467 170.901 485.499 172.662C480.392 170.989 475.242 168.876 470.047 166.323C464.853 163.769 460.01 160.864 455.52 157.606C451.03 154.261 447.156 150.783 443.899 147.173L454.199 142.815ZM449.973 166.058L460.01 161.436C462.564 163.021 465.205 164.826 467.934 166.851C470.663 168.788 473.261 170.725 475.726 172.662C478.191 174.599 480.216 176.359 481.801 177.944L471.5 183.491C469.827 181.818 467.758 179.969 465.293 177.944C462.916 175.831 460.362 173.718 457.633 171.605C454.904 169.492 452.351 167.643 449.973 166.058ZM445.483 186.792L455.916 180.717C458.734 181.598 461.727 182.654 464.897 183.887C468.154 185.12 471.28 186.352 474.273 187.585C477.267 188.905 479.776 190.094 481.801 191.15L471.5 198.15C469.387 196.917 466.834 195.597 463.84 194.188C460.847 192.867 457.721 191.547 454.464 190.226C451.294 188.905 448.301 187.761 445.483 186.792ZM398.997 163.945L408.241 157.342C411.851 158.927 415.637 160.82 419.599 163.021C423.649 165.222 426.95 167.203 429.504 168.964L419.995 176.359C418.41 175.127 416.385 173.762 413.92 172.265C411.543 170.769 409.034 169.272 406.392 167.775C403.839 166.278 401.374 165.002 398.997 163.945ZM421.184 149.286L432.541 153.512C429.9 155.978 427.126 158.311 424.221 160.512C421.404 162.713 418.806 164.606 416.429 166.19L407.449 162.361C409.738 160.512 412.203 158.355 414.845 155.889C417.486 153.424 419.599 151.223 421.184 149.286ZM440.729 154.041L452.483 158.795C449.753 160.82 446.892 162.889 443.899 165.002C440.993 167.115 438.044 169.096 435.05 170.945C432.145 172.794 429.416 174.422 426.862 175.831L418.278 171.605C420.831 170.02 423.473 168.215 426.202 166.19C428.931 164.165 431.573 162.052 434.126 159.851C436.767 157.65 438.968 155.713 440.729 154.041ZM412.071 132.91L426.07 135.684C420.963 143.079 414.272 149.727 405.996 155.625C397.808 161.524 387.551 166.587 375.225 170.813C374.521 169.228 373.377 167.423 371.792 165.398C370.207 163.285 368.666 161.7 367.17 160.644C378.703 157.298 388.168 153.204 395.563 148.362C402.959 143.431 408.461 138.281 412.071 132.91ZM386.715 81.5376H428.447V91.4424H386.715V81.5376ZM439.937 81.5376H490.385V91.4424H439.937V81.5376ZM386.451 72.8214L401.11 76.9154C398.645 82.1099 395.475 87.1283 391.601 91.9707C387.727 96.813 383.854 100.907 379.98 104.253C379.099 103.372 377.867 102.36 376.282 101.215C374.697 100.071 373.112 99.0141 371.528 98.0456C369.943 96.9891 368.49 96.1087 367.17 95.4043C371.131 92.675 374.829 89.2854 378.263 85.2354C381.697 81.1855 384.426 77.0475 386.451 72.8214ZM440.729 72.8214L455.784 76.7833C453.407 81.6257 450.326 86.2479 446.54 90.65C442.754 95.0521 438.968 98.6619 435.182 101.479C434.126 100.687 432.717 99.8064 430.956 98.838C429.283 97.8695 427.611 96.9451 425.938 96.0646C424.265 95.0962 422.768 94.3478 421.448 93.8196C425.586 91.2663 429.328 88.1408 432.673 84.443C436.107 80.7452 438.792 76.8714 440.729 72.8214ZM393.186 89.8576L406.26 86.2919C407.493 87.8767 408.726 89.6816 409.958 91.7065C411.191 93.6435 412.115 95.3603 412.731 96.857L399.129 100.819C398.601 99.3222 397.764 97.5614 396.62 95.5364C395.475 93.4234 394.331 91.5304 393.186 89.8576ZM450.634 89.8576L464.104 85.7637C465.777 87.3484 467.406 89.1533 468.991 91.1783C470.575 93.2033 471.808 95.0081 472.688 96.5929L458.426 100.951C457.721 99.4543 456.577 97.6494 454.992 95.5364C453.495 93.4234 452.042 91.5304 450.634 89.8576Z" fill="#3C3519"/>
<path d="M25 442.299L50.5749 406.495L71.0348 426.955L101.725 380.92L122.184 411.61L168.219 340L204.024 426.955" stroke="#3C3519" stroke-width="4.54387"/>
<path d="M55.7012 411.61L91.506 350.23L111.966 370.69L132.426 340L152.886 360.46" stroke="#3C3519" stroke-width="4.54387"/>
<path d="M71.0332 467.884C99.7807 437.188 147.758 462.769 173.333 452.539M71.0332 447.418C117.068 421.836 127.298 452.533 163.103 437.188M91.4931 472.999C137.528 449.898 132.413 478.114 188.678 467.884" stroke="#3C3519" stroke-width="4.54387"/>
<line x1="224" x2="224" y2="539.992" stroke="#3C3519" stroke-width="12"/>
<line y1="-6" x2="539.498" y2="-6" transform="matrix(0.00492356 0.999988 -0.999987 0.00509172 315.344 0.5)" stroke="#3C3519" stroke-width="12"/>
<path d="M266.736 413.584L290.491 433.691H238.681V389.836L266.736 413.584Z" fill="#3C3519" stroke="#3C3519" stroke-width="19.6819"/>
<path d="M279.525 413.584L255.771 433.691H307.581V389.836L279.525 413.584Z" fill="#3C3519" stroke="#3C3519" stroke-width="19.6819"/>
<path d="M265.736 117.062L289.491 96.9551H237.681V140.811L265.736 117.062Z" fill="#3C3519" stroke="#3C3519" stroke-width="19.6819"/>
<path d="M278.525 117.062L254.771 96.9551H306.581V140.811L278.525 117.062Z" fill="#3C3519" stroke="#3C3519" stroke-width="19.6819"/>
<line x1="273" y1="-0.00184819" x2="273.036" y2="116.063" stroke="#3C3519" stroke-width="12"/>
<line x1="274.018" y1="414.715" x2="274.018" y2="540" stroke="#3C3519" stroke-width="12"/>
</svg>
